<svg width="66" height="66" viewBox="0 0 66 66" fill="none" xmlns="http://www.w3.org/2000/svg">
<rect x="2.5" y="2.5" width="61" height="61" rx="9.5" fill="#FB8D2E" stroke="black" stroke-width="5"/>
<path d="M25.9086 19.5469H22.7978C22.7409 19.1444 22.6249 18.7869 22.4498 18.4744C22.2746 18.1572 22.0497 17.8873 21.775 17.6648C21.5004 17.4422 21.1832 17.2718 20.8233 17.1534C20.4682 17.035 20.0823 16.9759 19.6657 16.9759C18.9128 16.9759 18.257 17.1629 17.6983 17.5369C17.1396 17.9062 16.7064 18.446 16.3986 19.1562C16.0909 19.8617 15.937 20.7187 15.937 21.7273C15.937 22.7642 16.0909 23.6354 16.3986 24.3409C16.7111 25.0464 17.1467 25.5791 17.7054 25.9389C18.2641 26.2988 18.9105 26.4787 19.6444 26.4787C20.0563 26.4787 20.4374 26.4242 20.7878 26.3153C21.1429 26.2064 21.4578 26.0478 21.7324 25.8395C22.007 25.6264 22.2343 25.3684 22.4142 25.0653C22.5989 24.7623 22.7267 24.4167 22.7978 24.0284L25.9086 24.0426C25.8281 24.7102 25.6268 25.3542 25.3049 25.9744C24.9876 26.59 24.5591 27.1416 24.0194 27.6293C23.4843 28.1122 22.8451 28.4957 22.1017 28.7798C21.3631 29.0592 20.5274 29.1989 19.5946 29.1989C18.2973 29.1989 17.1373 28.9053 16.1145 28.3182C15.0965 27.7311 14.2916 26.8812 13.6998 25.7685C13.1126 24.6558 12.8191 23.3087 12.8191 21.7273C12.8191 20.1411 13.1174 18.7917 13.714 17.679C14.3105 16.5663 15.1202 15.7187 16.1429 15.1364C17.1657 14.5492 18.3162 14.2557 19.5946 14.2557C20.4374 14.2557 21.2187 14.3741 21.9384 14.6108C22.6628 14.8475 23.3044 15.1932 23.8631 15.6477C24.4218 16.0975 24.8764 16.6491 25.2267 17.3026C25.5819 17.956 25.8091 18.7041 25.9086 19.5469ZM27.5598 16.9901V14.4545H39.5059V16.9901H35.0527V29H32.013V16.9901H27.5598ZM54.1756 21.7273C54.1756 23.3134 53.8749 24.6629 53.2736 25.7756C52.677 26.8883 51.8626 27.7382 50.8304 28.3253C49.803 28.9077 48.6477 29.1989 47.3645 29.1989C46.0719 29.1989 44.9119 28.9053 43.8844 28.3182C42.8569 27.7311 42.0449 26.8812 41.4483 25.7685C40.8517 24.6558 40.5534 23.3087 40.5534 21.7273C40.5534 20.1411 40.8517 18.7917 41.4483 17.679C42.0449 16.5663 42.8569 15.7187 43.8844 15.1364C44.9119 14.5492 46.0719 14.2557 47.3645 14.2557C48.6477 14.2557 49.803 14.5492 50.8304 15.1364C51.8626 15.7187 52.677 16.5663 53.2736 17.679C53.8749 18.7917 54.1756 20.1411 54.1756 21.7273ZM51.0577 21.7273C51.0577 20.6998 50.9038 19.8333 50.5961 19.1278C50.293 18.4223 49.8645 17.8873 49.3105 17.5227C48.7566 17.1581 48.1079 16.9759 47.3645 16.9759C46.6212 16.9759 45.9725 17.1581 45.4185 17.5227C44.8645 17.8873 44.4337 18.4223 44.1259 19.1278C43.8229 19.8333 43.6713 20.6998 43.6713 21.7273C43.6713 22.7547 43.8229 23.6212 44.1259 24.3267C44.4337 25.0322 44.8645 25.5672 45.4185 25.9318C45.9725 26.2964 46.6212 26.4787 47.3645 26.4787C48.1079 26.4787 48.7566 26.2964 49.3105 25.9318C49.8645 25.5672 50.293 25.0322 50.5961 24.3267C50.9038 23.6212 51.0577 22.7547 51.0577 21.7273ZM27.938 53V51.1747L35.1966 40.9901H27.9238V38.4545H39.0602V40.2798L31.7946 50.4645H39.0744V53H27.938Z" fill="black"/>
</svg>
